<svg width="32" height="32" viewBox="0 0 32 32" fill="none" xmlns="http://www.w3.org/2000/svg">
<path d="M16 0C24.8362 4.22636e-05 32 7.16353 32 16C31.9999 24.8364 24.8361 32 16 32C7.16386 32 0.000132987 24.8364 0 16C0 7.16351 7.16378 0 16 0ZM15.9736 5.48535C11.7253 5.48548 8.28247 8.92736 8.28223 13.1758C8.28223 14.843 8.82015 16.4031 9.73438 17.667L15.9736 28.4502L22.2119 17.667C23.1262 16.4031 23.6641 14.8699 23.6641 13.1758C23.6638 8.92728 20.2221 5.48535 15.9736 5.48535Z" fill="#101828"/>
<path d="M13.157 9.06393L16.9169 12.9714L14.661 14.2739L13.157 9.06393Z" fill="#101828"/>
<path d="M18.4207 18.1817L14.6607 14.2742L16.9167 12.9717L18.4207 18.1817Z" fill="#101828"/>
</svg>
