<svg width="32" height="32" viewBox="0 0 32 32" fill="none" xmlns="http://www.w3.org/2000/svg">
<path d="M16 0C24.8362 4.22636e-05 32 7.16353 32 16C31.9999 24.8364 24.8361 32 16 32C7.16386 32 0.000132987 24.8364 0 16C0 7.16351 7.16378 0 16 0ZM15.9736 5.48633C11.7251 5.48633 8.28223 8.92805 8.28223 13.1768C8.28228 14.8438 8.82023 16.4032 9.73438 17.667L15.9736 28.4502L22.2119 17.667C23.126 16.4033 23.664 14.8706 23.6641 13.1768C23.6641 8.92805 20.2222 5.48633 15.9736 5.48633Z" fill="#ADFF2F"/>
<path d="M13.157 9.06417L16.9169 12.9716L14.661 14.2741L13.157 9.06417Z" fill="#ADFF2F"/>
<path d="M18.4202 18.1814L14.6602 14.274L16.9162 12.9715L18.4202 18.1814Z" fill="#ADFF2F"/>
</svg>
